<?xml version="1.0" standalone="no"?>
<!DOCTYPE svg PUBLIC "-//W3C//DTD SVG 20010904//EN"
 "http://www.w3.org/TR/2001/REC-SVG-20010904/DTD/svg10.dtd">
<svg version="1.0" xmlns="http://www.w3.org/2000/svg"
 width="901.000000pt" height="721.000000pt" viewBox="0 0 901.000000 721.000000"
 preserveAspectRatio="xMidYMid meet">
<metadata>
Created by potrace 1.16, written by Peter Selinger 2001-2019
</metadata>
<g transform="translate(0.000000,721.000000) scale(0.100000,-0.100000)"
fill="#000000" stroke="none">
<path d="M4351 6904 c-135 -36 -267 -147 -331 -278 -155 -313 13 -684 347
-771 86 -23 3390 -23 3476 0 151 39 284 148 351 287 103 215 58 470 -112 629
-77 73 -143 112 -227 134 -87 22 -3420 22 -3504 -1z"/>
<path d="M2295 5849 c-114 -14 -254 -84 -321 -161 -17 -20 -278 -404 -579
-854 -637 -953 -628 -936 -627 -1129 1 -179 -3 -173 639 -1136 582 -872 584
-875 703 -938 88 -47 170 -64 285 -59 115 5 189 28 274 84 165 110 249 280
238 484 -7 150 -21 177 -320 625 l-267 400 2757 5 c2528 5 2761 6 2799 21 152
62 257 155 317 279 147 310 -3 656 -333 767 -53 17 -162 18 -2792 21 -1506 1
-2738 4 -2738 6 0 2 119 181 263 398 160 238 273 417 287 453 28 75 39 239 20
324 -59 270 -320 447 -605 410z"/>
<path d="M4395 1580 c-263 -53 -450 -296 -432 -565 12 -189 111 -350 272 -440
123 -69 -1 -65 1870 -65 1487 0 1698 2 1750 15 198 52 357 234 387 443 42 288
-148 561 -426 611 -71 13 -3357 14 -3421 1z"/>
</g>
</svg>
